<svg width="273" height="73" viewBox="0 0 273 73" fill="none" xmlns="http://www.w3.org/2000/svg">
<path d="M224.142 5.14898C222.502 5.22306 220.862 5.22306 219.223 5.00083C210.86 4.11193 205.531 4.85268 198.153 3.96378C193.152 3.37117 185.199 3.2971 180.198 2.77857C166.425 1.22299 152.733 2.26004 138.878 2.55635C132.483 2.7045 126.416 3.74155 120.021 3.5934C103.789 3.22302 87.2277 6.03789 71.2407 8.55645C47.3012 12.4084 14.0156 20.4826 5.98109 33.1494C5.4072 38.4829 5.24323 39.0014 7.62078 42.9274C10.3263 47.3719 12.1299 47.6682 13.8516 48.409C21.7221 52.0387 29.1007 57.298 37.873 58.4091C41.8903 58.9277 45.9075 60.7795 49.9247 61.3721C60.4188 62.9277 70.9128 66.4093 81.3248 66.4833C85.0961 66.4833 87.3096 66.2611 90.917 67.2241C94.1144 68.113 97.2298 67.0759 100.427 67.8908C103.051 68.5574 105.838 67.7426 108.544 67.7426C112.889 67.7426 119.448 69.7426 123.793 69.9649C136.09 70.4834 139.206 71.2242 148.716 70.1871C159.784 69.0019 171.508 69.5204 182.494 68.3352C187.905 67.7426 193.234 67.2241 198.644 66.6315C212.992 65.0759 227.749 63.4462 240.702 57.7424C243.244 56.6313 246.359 55.298 248.819 56.5572C250.131 55.9646 251.606 55.8165 253 55.298C259.149 53.0757 265.79 46.1126 267.757 44.0385C269.397 39.9644 269.151 35.668 269.479 30.2605C269.807 24.1863 266.856 18.4085 263.986 12.8528C262.264 9.5935 259.887 7.37124 256.198 6.11196C253.82 5.29713 251.524 4.26008 248.983 4.03785C245.54 3.66748 244.802 4.26008 240.621 4.4823C237.095 4.70453 232.504 3.74155 228.979 4.4823C227.339 4.77861 225.781 5.00083 224.142 5.14898Z" stroke="#202020" stroke-width="10.9101" stroke-miterlimit="10" stroke-dasharray="545.51 545.51"/>
</svg>
